<svg version="1.1" xmlns="http://www.w3.org/2000/svg" xmlns:xlink="http://www.w3.org/1999/xlink" width="250.40208" height="229.2079" viewBox="0,0,250.40208,229.2079"><g transform="translate(-116.17504,-65.64713)"><g data-paper-data="{&quot;isPaintingLayer&quot;:true}" fill-rule="nonzero" stroke-linejoin="miter" stroke-miterlimit="10" stroke-dasharray="" stroke-dashoffset="0" style="mix-blend-mode: normal"><path d="M121.08805,286.89713v-219h167v219z" fill="#ffffff" stroke="none" stroke-width="0" stroke-linecap="butt"/><path d="M175.49703,264.65843c-5.81091,-34.82126 6.41432,-65.59239 25.99367,-68.52161c19.57935,-2.92922 39.68597,22.99974 44.9094,57.91397c4.91526,29.56135 -0.15835,33.01653 -0.15835,33.01653l-64.9864,-0.03951c0,0 -3.27436,-7.64583 -5.75832,-22.36938z" fill="#ffffff" stroke="#000000" stroke-width="4.5" stroke-linecap="butt"/><path d="M257.69121,185.73346c-1.4035,-9.38118 3.38232,-13.35275 3.38232,-13.35275c0,0 -15.21956,-13.95227 -4.60204,-18.87168c6.35297,-2.94352 13.26745,5.80384 13.26745,5.80384c0,0 -0.03204,-13.28762 7.50605,-13.60271c8.04304,-0.3362 6.1441,21.48192 6.1441,21.48192c0,0 1.99363,0.42021 2.7909,0.83541c0.75572,0.39356 1.87473,1.59436 1.87473,1.59436l0.13653,26.81456c0,0 -1.54251,3.46887 -10.22848,4.29241c-9.7387,1.45699 -18.81458,-5.25667 -20.27157,-14.99537z" fill="#ffffff" stroke="#000000" stroke-width="4.5" stroke-linecap="butt"/><ellipse cx="87.38676" cy="298.78276" transform="rotate(-8.50877) scale(0.88932,0.88932)" rx="0" ry="0" fill="#000000" stroke="none" stroke-width="4.5" stroke-linecap="butt"/><path d="M121.08805,286.89713v-219h167v219z" fill="none" stroke="#000000" stroke-width="4.5" stroke-linecap="butt"/><path d="M140.08768,286.99014c0,0 6.15981,-4.49682 12.8,-4.4c6.69528,0.09762 13.4,4.4 13.4,4.4" fill="none" stroke="#000000" stroke-width="4.5" stroke-linecap="round"/><g stroke-width="4.5"><path d="M158.18089,148.91476c-2.92922,-19.57935 10.56836,-37.82614 30.14771,-40.75536c19.57935,-2.92922 37.82615,10.56837 40.75537,30.14772c2.92922,19.57935 -10.56837,37.82614 -30.14772,40.75536c-19.57935,2.92922 -37.82614,-10.56837 -40.75536,-30.14772z" fill="#ffffff" stroke="#000000" stroke-linecap="butt"/><g><path d="M169.52401,137.26755l15.77731,-1.29152l-11.78177,13.7091" fill="none" stroke="#000000" stroke-linecap="round"/><path d="M196.6083,133.59278c-1.38041,-4.93285 1.49941,-10.05078 6.43226,-11.43118c4.93285,-1.38041 10.05078,1.49941 11.43119,6.43227c1.38041,4.93285 -1.4994,10.05078 -6.43226,11.43119c-4.93285,1.38041 -10.05078,-1.49941 -11.43119,-6.43227z" fill="#000000" stroke="none" stroke-linecap="butt"/><path d="M214.44911,146.04045c0,0 -7.94369,3.26417 -18.07604,6.09962c-10.13235,2.83544 -18.61647,4.16845 -18.61647,4.16845c0,0 11.45645,9.28852 21.5888,6.45307c10.13235,-2.83544 15.10371,-16.72114 15.10371,-16.72114z" fill="none" stroke="#000000" stroke-linecap="butt"/></g></g><g stroke="#000000" stroke-linecap="butt"><path d="M212.35114,257.37578l20.71952,-78.01306l130.75429,34.72708l-20.71952,78.01306z" fill="#ffffff" stroke-width="4.5"/><text transform="translate(238.54155,204.06128) rotate(15.47213) scale(0.5,0.5)" font-size="40" xml:space="preserve" fill="#000000" fill-rule="nonzero" stroke="#000000" stroke-width="0" stroke-linecap="butt" stroke-linejoin="miter" stroke-miterlimit="10" stroke-dasharray="" stroke-dashoffset="0" font-family="Handwriting" font-weight="normal" text-anchor="start" style="mix-blend-mode: normal"><tspan x="0" dy="0">I've got</tspan><tspan x="0" dy="46.15px">your back!</tspan><tspan x="0" dy="46.15px">-Zach Nomad</tspan></text></g></g></g></svg>