<svg version="1.1" xmlns="http://www.w3.org/2000/svg" xmlns:xlink="http://www.w3.org/1999/xlink" width="259.63748" height="69.25391" viewBox="0,0,259.63748,69.25391"><g transform="translate(-110.18126,-142.62304)"><g data-paper-data="{&quot;isPaintingLayer&quot;:true}" fill-rule="nonzero" stroke-linecap="butt" stroke-linejoin="miter" stroke-miterlimit="10" stroke-dasharray="" stroke-dashoffset="0" style="mix-blend-mode: normal"><path d="M110.18126,211.87696v-69.25391h259.63748v69.25391z" fill="#ffffff" stroke="none" stroke-width="0"/><g><path d="M126.04697,164.84749c0,-5.41308 4.38817,-9.80125 9.80125,-9.80125c5.41308,0 9.80125,4.38817 9.80125,9.80125c0,5.41308 -4.38817,9.80125 -9.80125,9.80125c-5.41308,0 -9.80125,-4.38817 -9.80125,-9.80125z" fill="#ffffff" stroke="#000000" stroke-width="0.5"/><path d="M130.57397,170.0856c0,-2.55558 2.0717,-4.62729 4.62728,-4.62729c2.55558,0 4.62729,2.07171 4.62729,4.62729c0,2.55558 -2.07171,4.62729 -4.62729,4.62729c-2.55558,0 -4.62728,-2.07171 -4.62728,-4.62729z" fill="#00a9ff" stroke="none" stroke-width="0"/><path d="M132.51677,162.15869c0,-1.48261 1.20188,-2.68449 2.68448,-2.68449c1.48261,0 2.68449,1.20189 2.68449,2.68449c0,1.48261 -1.20189,2.68449 -2.68449,2.68449c-1.48261,0 -2.68448,-1.20188 -2.68448,-2.68449z" fill="#00a9ff" stroke="none" stroke-width="0"/></g><g stroke="none" stroke-width="0"><g><path d="M155.87,185.50083v-36.71764h28.20847v36.71764z" fill="#ff9400"/><path d="M161.56625,164.3496v-9.79137h23.18084v9.79137z" fill="#ffffff"/><path d="M153.65211,180.20229v-9.79137h25.39873v9.79137z" fill="#ffffff"/></g><g><path d="M186.29319,185.50083v-36.71764h28.20847v36.71764z" fill="#ff9400"/><path d="M191.98944,180.20229v-25.64407h23.18084v25.64407z" fill="#ffffff"/></g><g><path d="M216.59981,185.50083v-36.71764h28.20847v36.71764z" fill="#ff9400"/><path d="M222.29607,164.3496v-9.79137h16.68403v9.79137z" fill="#ffffff"/><path d="M222.29607,185.71255v-18.35882h12.58681l5.46207,18.35882z" fill="#ffffff"/><path d="M244.80829,166.84191v18.35882l-5.8282,-18.35882z" data-paper-data="{&quot;index&quot;:null}" fill="#ffffff"/></g><g><path d="M247.13957,185.50083v-36.71764h28.20847v36.71764z" fill="#ff9400"/><path d="M252.83582,163.41708v-9.79137h16.68403v9.79137z" fill="#ffffff"/><path d="M252.83582,185.67144v-18.35882h16.68403v18.35882z" fill="#ffffff"/></g><g><path d="M276.6596,185.73908v-36.71764h28.20848v36.71764z" fill="#ff9400"/><path d="M293.28849,188.29818v-33.67232h13.7943v33.67232z" fill="#ffffff"/><path d="M276.6596,188.23054v-33.67232h11.57958v33.67232z" fill="#ffffff"/></g><g><path d="M307.08279,185.73908v-36.71764h28.20848v36.71764z" fill="#ff9400"/><path d="M312.94965,180.44054v-25.64407h23.18084v25.64407z" fill="#ffffff"/></g><g><path d="M337.38941,185.73908v-36.71764h28.20848v36.71764z" fill="#ff9400"/><path d="M343.08566,164.3496v-18.35882h16.68403v18.35882z" fill="#ffffff"/><path d="M343.08567,188.76974v-18.35882h16.68403v18.35882z" fill="#ffffff"/></g></g><g stroke="none" stroke-width="0"><path d="M216.80192,206.10132v-17.48403h2.77524v17.48403z" fill="#ff9400"/><g><path d="M236.80192,205.93136v-17.48403h13.43217v17.48403z" fill="#ff9400"/><path d="M239.19444,195.77843v-4.66241h12.09424v4.66241z" fill="#ffffff"/><path d="M239.19444,203.07034v-4.66241h12.09425v4.66241z" fill="#ffffff"/></g><g><path d="M234.63409,188.31729v17.48403h-13.43217v-17.48403z" data-paper-data="{&quot;index&quot;:null}" fill="#ff9400"/><path d="M235.68869,187.69872v15.45684h-12.09424v-15.45684z" data-paper-data="{&quot;index&quot;:null}" fill="#ffffff"/></g><g><path d="M201.60192,206.54065v-17.48403h13.43217v17.48403z" fill="#ff9400"/><path d="M203.99444,196.38772v-4.66241h12.09424v4.66241z" fill="#ffffff"/><path d="M203.99444,207.75923v-8.74201h12.09424v8.74201z" fill="#ffffff"/></g><g><path d="M185.96256,206.59716v-17.48403h13.43217v17.48403z" fill="#ff9400"/><path d="M188.47983,204.07413v-12.21107h8.59443v12.21107z" fill="#ffffff"/></g><g><path d="M170.65366,206.54676v-17.48403h13.43217v17.48403z" fill="#ff9400"/><path d="M173.36608,196.47506v-4.66241h7.94452v4.66241z" fill="#ffffff"/><path d="M173.36608,206.64757v-8.74201h5.99352l2.6009,8.74201z" fill="#ffffff"/><path d="M184.08584,197.66184v8.74201l-2.77524,-8.74201z" data-paper-data="{&quot;index&quot;:null}" fill="#ffffff"/></g><g><path d="M155.55023,206.55654v-17.48403h13.43217v17.48403z" fill="#ff9400"/><path d="M158.26265,196.04081v-4.66241h7.94452v4.66241z" fill="#ffffff"/><path d="M158.26265,206.63778v-8.74201h11.03814v8.74201z" fill="#ffffff"/></g></g><g stroke="none" stroke-width="0"><g><path d="M350.26759,206.05091v-17.48402h13.43218v17.48402z" fill="#ff9400"/><path d="M352.98001,195.97922v-4.66241h7.94451v4.66241z" fill="#ffffff"/><path d="M352.98001,206.15173v-8.74201h5.99352l2.6009,8.74201z" fill="#ffffff"/><path d="M363.69977,197.166v8.74202l-2.77525,-8.74202z" data-paper-data="{&quot;index&quot;:null}" fill="#ffffff"/></g><g><path d="M335.80192,206.10132v-17.48403h13.43217v17.48403z" fill="#ff9400"/><path d="M338.19444,195.94839v-4.66241h12.09424v4.66241z" fill="#ffffff"/><path d="M338.19444,203.2403v-4.66241h12.09425v4.66241z" fill="#ffffff"/></g><g><path d="M321.14259,206.38469v-17.48403h13.43217v17.48403z" fill="#ff9400"/><path d="M323.14805,197.31883v-6.40461h11.83793v6.40461z" fill="#ffffff"/><path d="M320.73138,204.37114v-5.0444h11.11549v5.0444z" fill="#ffffff"/></g><g><path d="M306.64259,206.13666v-17.48403h13.43217v17.48403z" fill="#ff9400"/><path d="M309.15986,203.61362v-16.12773h3.03216v16.12773z" fill="#ffffff"/><path d="M314.40986,203.61362v-16.12773h3.03216v16.12773z" fill="#ffffff"/></g><g><path d="M292.22593,206.10132v-17.48403h13.43218v17.48403z" fill="#ff9400"/><path d="M294.74319,203.57829v-12.21106h8.59443v12.21106z" fill="#ffffff"/></g><g><path d="M276.85366,205.95091v-17.48403h13.43217v17.48403z" fill="#ff9400"/><path d="M279.56608,195.87922v-4.66241h7.94452v4.66241z" fill="#ffffff"/><path d="M279.56608,206.05173v-8.74202h5.99352l2.6009,8.74202z" fill="#ffffff"/><path d="M290.28584,197.066v8.74201l-2.77524,-8.74201z" data-paper-data="{&quot;index&quot;:null}" fill="#ffffff"/></g><g><path d="M261.95507,206.10132v-17.48403h13.43217v17.48403z" fill="#ff9400"/><path d="M264.34759,195.94839v-4.66241h8.59443v4.66241z" fill="#ffffff"/><path d="M264.34759,203.2403v-4.66241h8.59443v4.66241z" fill="#ffffff"/><path d="M273.99961,197.39465l1.38762,-1.38762l1.38762,1.38762l-1.38762,1.38762z" fill="#ffffff"/></g></g><g stroke="none" stroke-width="0"><path d="M148.67649,153.71595c3.03866,3.15423 2.88345,8.76608 2.88345,8.76608v29.40398c0,0 -0.21841,4.0998 -3.95682,7.51021c-4.52535,4.12832 -7.60607,4.23498 -7.60607,4.23498l-11.71756,0.04122c0,0 -3.5861,0.15275 -7.65698,-3.54668c-4.07088,-3.69943 -3.92109,-8.18184 -3.92109,-8.18184v-29.43344c0,0 -0.38385,-3.89033 3.06639,-7.75852c3.33342,-3.73721 8.77018,-3.91944 8.77018,-3.91944h11.79924c0,0 5.30058,-0.27079 8.33924,2.88345zM128.48979,163.46023c-0.0825,0.3681 -0.12603,0.75091 -0.12603,1.1439c0,0.16922 0.00807,0.33656 0.02385,0.50164c0.00401,0.39664 0.05235,0.78265 0.14031,1.15332c0.13952,1.44294 0.86789,2.71363 1.94185,3.56879c0.577,0.5792 1.2895,1.02333 2.08592,1.28082c0.12714,0.05605 0.25695,0.10717 0.38917,0.1531c0.7223,0.37912 1.54455,0.59361 2.4169,0.59361c0.74615,0 1.45564,-0.15692 2.09729,-0.43956c0.05065,-0.01717 0.10095,-0.03509 0.15089,-0.05377c0.71838,-0.21098 1.37229,-0.57266 1.92517,-1.04847c0.90924,-0.61074 1.61538,-1.50053 1.99571,-2.54672c0.02361,-0.05115 0.04642,-0.10274 0.06841,-0.15477c0.35195,-0.70156 0.55005,-1.49366 0.55005,-2.33202c0,-0.06711 -0.00127,-0.13393 -0.00378,-0.20042c0.00251,-0.0665 0.00378,-0.1333 0.00378,-0.20041c0,-0.30582 -0.02636,-0.6055 -0.07693,-0.89686c-0.05588,-0.81902 -0.30114,-1.58602 -0.69231,-2.25758c-0.07356,-0.14832 -0.15399,-0.29264 -0.24086,-0.43254c-0.27998,-0.53443 -0.65004,-1.01423 -1.09003,-1.41924c-0.57918,-0.62921 -1.31133,-1.11542 -2.13745,-1.39966c-0.31214,-0.143 -0.64085,-0.25606 -0.98248,-0.3355c-0.52688,-0.17938 -1.09174,-0.2767 -1.67932,-0.2767c-0.07298,0 -0.1456,0.0015 -0.21785,0.00448c-0.57176,0.0154 -1.12053,0.12294 -1.632,0.30833c-0.69705,0.16979 -1.33916,0.47985 -1.89473,0.8986c-0.37608,0.23431 -0.72011,0.51524 -1.02398,0.83472c-0.01626,0.01586 -0.03242,0.03184 -0.04847,0.04791c-1.06105,0.84128 -1.78654,2.08741 -1.94307,3.50496z" data-paper-data="{&quot;index&quot;:null}" fill="#ff9400"/><g fill="#ffffff"><path d="M133.04875,182.61384v14.08598h-15.1152c0,0 -1.16034,-1.62523 -1.23943,-5.19574c-0.01213,-0.5057 0,-8.89024 0,-8.89024z" data-paper-data="{&quot;index&quot;:null}"/><path d="M140.05391,189.65252c0,3.87601 -3.13632,7.01815 -7.00517,7.01815c-3.86885,0 -7.00517,-3.14213 -7.00517,-7.01814c0,-3.87601 3.13632,-7.01814 7.00517,-7.01814c3.86885,0 7.00517,3.14213 7.00517,7.01815z" data-paper-data="{&quot;index&quot;:null}"/></g><path d="M135.20126,171.88617v-0.03318c0.0533,0.00161 0.10681,0.00242 0.16051,0.00242c0.74615,0 1.45564,-0.15692 2.09729,-0.43956c0.05065,-0.01717 0.10095,-0.03509 0.15089,-0.05377c0.71838,-0.21098 1.37229,-0.57266 1.92517,-1.04847c0.90924,-0.61074 1.61538,-1.50053 1.99571,-2.54672c0.02361,-0.05115 0.04642,-0.10274 0.06841,-0.15477c0.35195,-0.70156 0.55005,-1.49366 0.55005,-2.33202c0,-0.06711 -0.00127,-0.13393 -0.00378,-0.20042c0.00251,-0.0665 0.00378,-0.1333 0.00378,-0.20041c0,-0.30582 -0.02636,-0.6055 -0.07693,-0.89686c-0.05588,-0.81902 -0.30114,-1.58602 -0.69231,-2.25758c-0.07356,-0.14832 -0.15399,-0.29264 -0.24086,-0.43254c-0.27998,-0.53443 -0.65004,-1.01423 -1.09003,-1.41924c-0.57918,-0.62921 -1.31133,-1.11542 -2.13745,-1.39966c-0.31214,-0.143 -0.64085,-0.25606 -0.98248,-0.3355c-0.52688,-0.17938 -1.09174,-0.2767 -1.67932,-0.2767c-0.01623,0 -0.03244,0.00008 -0.04864,0.00023v-0.06125h15.8214c0,0 0.45414,1.89685 0.53323,5.19574c0.01212,0.5057 0,8.89024 0,8.89024z" data-paper-data="{&quot;index&quot;:null}" fill="#ffffff"/></g></g></g></svg>