<svg version="1.1" xmlns="http://www.w3.org/2000/svg" xmlns:xlink="http://www.w3.org/1999/xlink" width="83.70383" height="126.84663" viewBox="0,0,83.70383,126.84663"><g transform="translate(-198.16176,-116.53314)"><g data-paper-data="{&quot;isPaintingLayer&quot;:true}" fill-rule="nonzero" stroke-width="0" stroke-linecap="butt" stroke-linejoin="miter" stroke-miterlimit="10" stroke-dasharray="" stroke-dashoffset="0" style="mix-blend-mode: normal"><path d="M274.94131,123.46818c7.29363,7.57103 6.92108,21.04103 6.92108,21.04103v70.57774c0,0 -0.52423,9.84065 -9.49746,18.02661c-10.8621,9.90912 -18.25667,10.16513 -18.25667,10.16513l-28.1254,0.09894c0,0 -8.60764,0.36665 -18.37887,-8.51303c-9.77123,-8.87968 -9.41171,-19.6387 -9.41171,-19.6387v-70.64845c0,0 -0.92136,-9.33788 7.36019,-18.62261c8.00114,-8.97034 21.05088,-9.40775 21.05088,-9.40775h28.32146c0,0 12.72287,-0.64996 20.0165,6.92108zM226.48759,146.85716c-0.19802,0.88353 -0.30251,1.8024 -0.30251,2.74568c0,0.40618 0.01937,0.80783 0.05725,1.20408c0.00961,0.95203 0.12564,1.87857 0.33678,2.7683c0.33489,3.46346 2.08319,6.51346 4.66099,8.5661c1.38496,1.39024 3.09514,2.45627 5.00678,3.07432c0.30517,0.13453 0.61674,0.25722 0.93413,0.36747c1.73371,0.91 3.70735,1.42483 5.80123,1.42483c1.79096,0 3.49395,-0.37665 5.03408,-1.05506c0.12157,-0.04121 0.24231,-0.08425 0.36217,-0.12907c1.72431,-0.50642 3.29388,-1.37455 4.62095,-2.51661c2.18244,-1.46593 3.87734,-3.60168 4.79025,-6.11283c0.05667,-0.12277 0.11142,-0.24661 0.16419,-0.37149c0.84477,-1.68395 1.32028,-3.5852 1.32028,-5.5975c0,-0.16108 -0.00305,-0.32146 -0.00909,-0.48106c0.00604,-0.15961 0.00909,-0.31998 0.00909,-0.48106c0,-0.73406 -0.06328,-1.45335 -0.18467,-2.1527c-0.13414,-1.96586 -0.72281,-3.80689 -1.66172,-5.41881c-0.17657,-0.35602 -0.36961,-0.70242 -0.57813,-1.03822c-0.67202,-1.28278 -1.56028,-2.43444 -2.61638,-3.40657c-1.3902,-1.51027 -3.14755,-2.67732 -5.13047,-3.35957c-0.74922,-0.34324 -1.53824,-0.61461 -2.35823,-0.80528c-1.26467,-0.43057 -2.62047,-0.66414 -4.03083,-0.66414c-0.17516,0 -0.34949,0.0036 -0.5229,0.01074c-1.37239,0.03695 -2.6896,0.29509 -3.91727,0.74008c-1.6731,0.40754 -3.21434,1.15178 -4.54788,2.15689c-0.9027,0.5624 -1.72846,1.23672 -2.45785,2.00355c-0.03903,0.03808 -0.07781,0.07642 -0.11634,0.11501c-2.54682,2.01932 -4.2882,5.01036 -4.66391,8.41289z" data-paper-data="{&quot;index&quot;:null}" fill="#ff9400" stroke="none"/><g fill="#ffffff" stroke="none"><path d="M237.43036,192.83115v33.81027h-36.28068c0,0 -2.78515,-3.901 -2.97498,-12.47121c-0.0291,-1.21381 0,-21.33906 0,-21.33906z" data-paper-data="{&quot;index&quot;:null}"/><path d="M254.24472,209.72594c0,9.30351 -7.52804,16.8455 -16.81436,16.8455c-9.28632,0 -16.81436,-7.54199 -16.81436,-16.84549c0,-9.30351 7.52804,-16.84549 16.81436,-16.84549c9.28632,0 16.81436,7.54199 16.81436,16.8455z" data-paper-data="{&quot;index&quot;:null}"/></g><path d="M242.59699,167.08176v-0.07964c0.12794,0.00387 0.25637,0.00582 0.38525,0.00582c1.79096,0 3.49395,-0.37665 5.03408,-1.05506c0.12157,-0.04121 0.24231,-0.08425 0.36217,-0.12907c1.72431,-0.50642 3.29388,-1.37455 4.62095,-2.51661c2.18244,-1.46593 3.87734,-3.60168 4.79025,-6.11283c0.05667,-0.12277 0.11142,-0.24661 0.16419,-0.37149c0.84477,-1.68395 1.32028,-3.5852 1.32028,-5.5975c0,-0.16108 -0.00305,-0.32146 -0.00909,-0.48106c0.00604,-0.15961 0.00909,-0.31998 0.00909,-0.48106c0,-0.73406 -0.06328,-1.45335 -0.18467,-2.1527c-0.13414,-1.96586 -0.72281,-3.80689 -1.66172,-5.41881c-0.17657,-0.35602 -0.36961,-0.70242 -0.57813,-1.03822c-0.67202,-1.28278 -1.56028,-2.43444 -2.61638,-3.40657c-1.3902,-1.51027 -3.14755,-2.67732 -5.13047,-3.35957c-0.74922,-0.34324 -1.53824,-0.61461 -2.35823,-0.80528c-1.26467,-0.43057 -2.62047,-0.66414 -4.03083,-0.66414c-0.03896,0 -0.07788,0.00018 -0.11675,0.00053l0,-0.14703h37.97578c0,0 1.09005,4.55297 1.27989,12.47122c0.0291,1.21381 0,21.33906 0,21.33906z" data-paper-data="{&quot;index&quot;:null}" fill="#ffffff" stroke="none"/><path d="M225.78263,150.18698c0,-9.30351 7.52804,-16.84549 16.81436,-16.84549c9.28632,0 16.81436,7.54199 16.81436,16.8455c0,3.00024 -0.78289,5.81728 -2.15516,8.25728c0.19958,-0.40475 0.3779,-0.82185 0.5335,-1.24987c0.05667,-0.12277 0.11142,-0.24661 0.16419,-0.37149c0.84477,-1.68395 1.32028,-3.5852 1.32028,-5.5975c0,-0.16108 -0.00305,-0.32146 -0.00909,-0.48106c0.00604,-0.15961 0.00909,-0.31998 0.00909,-0.48106c0,-0.73406 -0.06328,-1.45335 -0.18467,-2.1527c-0.13414,-1.96586 -0.72281,-3.80689 -1.66172,-5.41881c-0.17657,-0.35602 -0.36961,-0.70242 -0.57813,-1.03822c-0.67202,-1.28278 -1.56028,-2.43444 -2.61638,-3.40657c-1.3902,-1.51027 -3.14755,-2.67732 -5.13047,-3.35957c-0.74922,-0.34324 -1.53824,-0.61461 -2.35823,-0.80528c-1.26467,-0.43057 -2.62047,-0.66414 -4.03083,-0.66414c-0.17516,0 -0.34949,0.0036 -0.5229,0.01074c-1.37239,0.03695 -2.6896,0.29509 -3.91727,0.74008c-1.6731,0.40754 -3.21434,1.15178 -4.54788,2.15689c-0.9027,0.5624 -1.72846,1.23672 -2.45785,2.00355c-0.03903,0.03808 -0.07781,0.07642 -0.11634,0.11501c-2.54682,2.01932 -4.2882,5.01036 -4.66391,8.41289c-0.19802,0.88353 -0.30251,1.8024 -0.30251,2.74568c0,0.40618 0.01937,0.80783 0.05725,1.20408c0.00961,0.95203 0.12564,1.87857 0.33678,2.7683c0.33489,3.46346 2.08319,6.51346 4.66099,8.5661c1.38496,1.39024 3.09514,2.45627 5.00678,3.07432c0.30517,0.13453 0.61674,0.25722 0.93413,0.36747c1.73371,0.91 3.70735,1.42483 5.80123,1.42483c1.79096,0 3.49395,-0.37665 5.03408,-1.05506c0.12157,-0.04121 0.24231,-0.08425 0.36217,-0.12907c1.72431,-0.50642 3.29388,-1.37455 4.62095,-2.51661c0.37098,-0.24918 0.72787,-0.51772 1.06923,-0.80417c-3.00424,2.80984 -7.03751,4.52942 -11.47168,4.52942c-9.28632,0 -16.81436,-7.54199 -16.81436,-16.84549z" data-paper-data="{&quot;index&quot;:null}" fill="#ffffff" stroke="#000000"/></g></g></svg>