<svg version="1.1" xmlns="http://www.w3.org/2000/svg" xmlns:xlink="http://www.w3.org/1999/xlink" width="64.34296" height="47.96735" viewBox="0,0,64.34296,47.96735"><g transform="translate(-207.83228,-156.01632)"><g data-paper-data="{&quot;isPaintingLayer&quot;:true}" fill-rule="nonzero" stroke="#000000" stroke-width="2" stroke-linecap="butt" stroke-linejoin="miter" stroke-miterlimit="10" stroke-dasharray="" stroke-dashoffset="0" style="mix-blend-mode: normal"><g fill="#a3a3a3"><path d="M208.83228,194.98367c0,0 -0.02887,-14.75224 14.89156,-14.75224c14.78094,0 14.89156,14.75224 14.89156,14.75224z"/><path d="M217.96943,171.88186c0,-3.17808 2.57634,-5.75442 5.75442,-5.75442c3.17808,0 5.75442,2.57634 5.75442,5.75442c0,3.17808 -2.57634,5.75442 -5.75442,5.75442c-3.17808,0 -5.75442,-2.57634 -5.75442,-5.75442z"/></g><g fill="#ffffff"><path d="M223.72385,202.98368c0,0 -0.046,-23.5 23.72194,-23.5c23.54571,0 23.72193,23.5 23.72193,23.5z"/><path d="M238.27912,166.18299c0,-5.06261 4.10406,-9.16666 9.16667,-9.16666c5.06261,0 9.16666,4.10405 9.16666,9.16666c0,5.06261 -4.10406,9.16667 -9.16666,9.16667c-5.06261,0 -9.16667,-4.10406 -9.16667,-9.16667z"/></g></g></g></svg>